<svg width="395.99999999999994" height="105.40685037664463" viewBox="-4 0 373.89473684210526 99.5228954114412" class="css-1j8o68f"><defs id="SvgjsDefs2690"></defs><g id="SvgjsG2691" featurekey="HKaMnE-0" transform="matrix(0.9210526347160339,0,0,-0.9210526347160339,-4.000000476837158,107.31407928466797)" fill="#ff0000"><g xmlns="http://www.w3.org/2000/svg"><path d="M100,91.541H89.191v-6.955h-9.398v6.955H20.207v-6.955h-9.399v6.955H0V8.459h10.808v6.954h9.399V8.459h59.586v6.954h9.398   V8.459H100V91.541L100,91.541z M92.951,87.781h3.289V12.218h-3.289v4.136c0,1.555-1.265,2.819-2.82,2.819H78.854   c-1.555,0-2.82-1.265-2.82-2.819v-4.136H23.966v4.136c0,1.555-1.265,2.819-2.819,2.819H9.868c-1.555,0-2.819-1.265-2.819-2.819   v-4.136h-3.29v75.563h3.29v-4.135c0-1.555,1.265-2.819,2.819-2.819h11.279c1.554,0,2.819,1.265,2.819,2.819v4.135h52.067v-4.135   c0-1.555,1.266-2.819,2.82-2.819h11.277c1.556,0,2.82,1.265,2.82,2.819V87.781L92.951,87.781z M21.147,71.554H9.868   c-1.555,0-2.819-1.265-2.819-2.819V57.456c0-1.555,1.265-2.819,2.819-2.819h11.279c1.554,0,2.819,1.265,2.819,2.819v11.278   C23.966,70.289,22.701,71.554,21.147,71.554L21.147,71.554z M10.808,67.795h9.399v-9.399h-9.399V67.795L10.808,67.795z    M21.147,45.363H9.868c-1.555,0-2.819-1.265-2.819-2.819V31.266c0-1.555,1.265-2.819,2.819-2.819h11.279   c1.554,0,2.819,1.265,2.819,2.819v11.278C23.966,44.099,22.701,45.363,21.147,45.363L21.147,45.363z M10.808,41.604h9.399v-9.398   h-9.399V41.604L10.808,41.604z M40.046,37.739l21.587,13.791L40.046,65.318V37.739 M36.287,30.876v41.306l32.33-20.652   L36.287,30.876L36.287,30.876z M90.131,71.554H78.854c-1.555,0-2.82-1.265-2.82-2.819V57.456c0-1.555,1.266-2.819,2.82-2.819   h11.277c1.556,0,2.82,1.265,2.82,2.819v11.278C92.951,70.289,91.687,71.554,90.131,71.554L90.131,71.554z M79.793,67.795h9.398   v-9.399h-9.398V67.795L79.793,67.795z M90.131,45.363H78.854c-1.555,0-2.82-1.265-2.82-2.819V31.266   c0-1.555,1.266-2.819,2.82-2.819h11.277c1.556,0,2.82,1.265,2.82,2.819v11.278C92.951,44.099,91.687,45.363,90.131,45.363   L90.131,45.363z M79.793,41.604h9.398v-9.398h-9.398V41.604L79.793,41.604z"></path></g></g><g id="SvgjsG2692" featurekey="J3GnXt-0" transform="matrix(4.359275817871094,0,0,4.359275817871094,104.06611892209565,9.772961041900984)" fill="#ff0000"><path d="M4.34 5.84 l7.8 11.64 l0.04 0 l0 -11.64 l1.92 0 l0 14.16 l-2.44 0 l-7.88 -11.64 l-0.04 0 l0 11.64 l-1.92 0 l0 -14.16 l2.52 0 z M21.62 10.28 c1.4533 0 2.5834 0.45664 3.39 1.37 s1.2167 2.17 1.23 3.77 l0 0.5 l-7.6 0 c0 0.77334 0.31 1.4233 0.93 1.95 s1.3767 0.79666 2.27 0.81 c0.98666 0 1.8533 -0.47334 2.6 -1.42 l1.36 1.04 c-1.0133 1.2933 -2.4134 1.94 -4.2 1.94 c-1.4533 0 -2.6234 -0.46334 -3.51 -1.39 s-1.3433 -2.1234 -1.37 -3.59 c0 -1.4133 0.45666 -2.59 1.37 -3.53 s2.09 -1.4233 3.53 -1.45 z M24.32 14.48 c-0.02666 -0.89334 -0.28 -1.5767 -0.76 -2.05 s-1.14 -0.71 -1.98 -0.71 c-0.56 0 -1.0633 0.13666 -1.51 0.41 s-0.79666 0.62668 -1.05 1.06 s-0.38 0.86334 -0.38 1.29 l5.68 0 z M30.9 7.859999999999999 l-0.000019531 2.66 l2.58 0 l0 1.56 l-2.58 0 l0 4.56 c0 0.61334 0.08666 1.0867 0.26 1.42 s0.54 0.5 1.1 0.5 c0.53334 0 0.96 -0.09334 1.28 -0.28 l0 1.64 c-0.34666 0.18666 -0.89332 0.29332 -1.64 0.31998 c-0.72 0 -1.2767 -0.11 -1.67 -0.33 s-0.68 -0.52666 -0.86 -0.92 s-0.27 -1.01 -0.27 -1.85 l0 -5.06 l-2.08 0 l0 -1.56 l2.08 0 l0 -2.66 l1.8 0 z M39.739999999999995 4.640000000000001 c0.53334 0 0.97998 0.04666 1.34 0.14 l-0.2 1.6 c-0.29334 -0.12 -0.63334 -0.18 -1.02 -0.18 c-0.54666 0 -0.94 0.15 -1.18 0.45 s-0.36 0.83 -0.36 1.59 l0 2.28 l2.14 0 l0 1.56 l-2.16 0 l0 7.92 l-1.8 0 l0 -7.92 l-2.04 0 l0 -1.56 l2.04 0 l0 -2.2 c0 -1.2667 0.25666 -2.1966 0.77 -2.79 s1.3367 -0.89 2.47 -0.89 z M44.39999999999999 4.880000000000001 l0 15.12 l-1.8 0 l0 -15.12 l1.8 0 z M48.31999999999999 5.800000000000001 c0.36 0 0.67002 0.13002 0.93002 0.39002 s0.39 0.57 0.39 0.93 c0 0.37334 -0.13334 0.68668 -0.4 0.94002 s-0.57332 0.38 -0.91998 0.38 c-0.37334 0 -0.68668 -0.12666 -0.94002 -0.38 s-0.38 -0.56668 -0.38 -0.94002 s0.13334 -0.68668 0.4 -0.94002 s0.57332 -0.38 0.91998 -0.38 z M49.21999999999999 10.52 l0 9.48 l-1.8 0 l0 -9.48 l1.8 0 z M53.63999999999999 10.52 l2.3 3.36 l2.26 -3.36 l2.18 0 l-3.24 4.42 l3.84 5.06 l-2.32 0 l-2.8 -3.98 l-2.8 3.98 l-2.22 0 l3.84 -5.06 l-3.36 -4.42 l2.32 0 z"></path></g></svg>